:FULLY-SPECIFIED
:FORCE-ALL-JOINTS-BE-3DOF
:DEGREES
815
root 1.96067 16.7082 22.533 4.93292 1.99627 353.577
lfemur -39.6619 0.517501 -0.442873
ltibia 22.4158 0 0
lfoot -9.29803 6.5784 0
ltoes 14.7989 0 0
rfemur 0.509092 4.71578 21.8649
rtibia 22.9792 0 0
rfoot -22.2838 -10.2579 0
rtoes -22.0547 0 0
lowerback 0.948263 5.89792 5.62596
upperback -0.0824386 7.92318 -0.339203
thorax 0.192393 3.96543 -3.46704
lowerneck -5.95037 -1.70143 2.86175
upperneck -0.891785 -2.46217 1.37058
head 0.689375 -1.21431 -0.108872
lclavicle 1.60795e-14 4.07423e-15 0
lhumerus -53.1433 -7.28578 91.7607
lradius 54.1228 0 0
lwrist 19.8043 0 0
lhand -11.1975 5.11206 0
lfingers 7.12502 0 0
lthumb 14.8299 34.5564 0
rclavicle 1.60795e-14 4.07423e-15 0
rhumerus -30.938 45.5133 -111.539
rradius 67.6828 0 0
rwrist -0.958558 0 0
rhand -11.291 -25.3767 0
rfingers 7.12502 0 0
rthumb 14.7397 -774.826 0
816
root 1.99719 16.6845 22.7062 4.90716 0.636668 353.306
lfemur -38.8808 0.162445 0.581442
ltibia 20.8776 0 0
lfoot -8.90411 8.42843 0
ltoes 15.4317 0 0
rfemur 1.58353 5.12679 21.9887
rtibia 22.0653 0 0
rfoot -22.0886 -10.6504 0
rtoes -22.7381 0 0
lowerback 0.75083 6.09618 5.72982
upperback -0.125105 8.17714 -0.262413
thorax 0.286908 4.09382 -3.41757
lowerneck -5.86296 -1.64588 2.95634
upperneck -0.690578 -2.39605 1.36333
head 0.737032 -1.17896 -0.125837
lclavicle 1.66581e-14 3.20375e-15 0
lhumerus -53.1403 -7.08592 91.5309
lradius 53.6233 0 0
lwrist 19.5624 0 0
lhand -10.4226 5.21441 0
lfingers 7.12502 0 0
lthumb 15.5762 34.6001 0
rclavicle 1.66581e-14 3.20375e-15 0
rhumerus -30.6514 45.4629 -110.962
rradius 67.5333 0 0
rwrist -1.27416 0 0
rhand -10.4359 -24.8313 0
rfingers 7.12502 0 0
rthumb 15.5633 -774.217 0
817
root 2.03498 16.6583 22.8843 4.85933 -0.726176 353.046
lfemur -38.0704 -0.181259 1.56375
ltibia 19.4949 0 0
lfoot -8.53056 10.2774 0
ltoes 16.2005 0 0
rfemur 2.69507 5.52614 22.0916
rtibia 21.169 0 0
rfoot -21.8929 -11.0711 0
rtoes -23.4892 0 0
lowerback 0.553838 6.2986 5.81898
upperback -0.170853 8.43637 -0.187352
thorax 0.37668 4.22463 -3.36122
lowerneck -5.77007 -1.59187 3.05275
upperneck -0.469965 -2.33228 1.35716
head 0.789898 -1.1444 -0.142929
lclavicle 8.49733e-15 1.57522e-15 0
lhumerus -53.163 -6.8665 91.281
lradius 53.1494 0 0
lwrist 19.303 0 0
lhand -9.59945 5.30467 0
lfingers 7.12502 0 0
lthumb 16.3688 34.6263 0
rclavicle 8.49733e-15 1.57522e-15 0
rhumerus -30.3625 45.4003 -110.348
rradius 67.3855 0 0
rwrist -1.59412 0 0
rhand -9.56383 -24.2637 0
rfingers 7.12502 0 0
rthumb 16.4031 -773.582 0
818
root 2.07287 16.6307 23.0613 4.79236 -2.04663 352.805
lfemur -37.2657 -0.482152 2.45513
ltibia 18.3241 0 0
lfoot -8.19199 12.0387 0
ltoes 17.0768 0 0
rfemur 3.80237 5.89663 22.1671
rtibia 20.3235 0 0
rfoot -21.7043 -11.4994 0
rtoes -24.289 0 0
lowerback 0.362795 6.49778 5.88953
upperback -0.218479 8.69131 -0.116504
thorax 0.458684 4.35303 -3.29932
lowerneck -5.67622 -1.54032 3.14835
upperneck -0.237226 -2.27188 1.35133
head 0.846475 -1.11124 -0.15995
lclavicle -1.58548e-15 -2.5494e-17 0
lhumerus -53.2115 -6.63382 91.0198
lradius 52.7183 0 0
lwrist 19.0296 0 0
lhand -8.76015 5.38205 0
lfingers 7.12502 0 0
lthumb 17.1769 34.6364 0
rclavicle -1.58548e-15 -2.5494e-17 0
rhumerus -30.0803 45.3279 -109.716
rradius 67.2436 0 0
rwrist -1.90813 0 0
rhand -8.70741 -23.6939 0
rfingers 7.12502 0 0
rthumb 17.2276 -772.944 0
819
root 2.10966 16.6025 23.2315 4.70917 -3.27908 352.595
lfemur -36.5016 -0.708777 3.20668
ltibia 17.4215 0 0
lfoot -7.90299 13.6259 0
ltoes 18.0321 0 0
rfemur 4.86408 6.22101 22.2085
rtibia 19.5618 0 0
rfoot -21.5303 -11.9143 0
rtoes -25.1186 0 0
lowerback 0.183208 6.68627 5.93757
upperback -0.266776 8.93241 -0.0523562
thorax 0.529896 4.47419 -3.23321
lowerneck -5.58596 -1.49215 3.24049
upperneck 0.000356945 -2.21587 1.34514
head 0.905267 -1.08008 -0.176701
lclavicle -6.77315e-15 -8.12523e-16 0
lhumerus -53.2858 -6.39414 90.7559
lradius 52.3466 0 0
lwrist 18.7455 0 0
lhand -7.93684 5.44574 0
lfingers 7.12502 0 0
lthumb 17.9694 34.632 0
rclavicle -6.77315e-15 -8.12523e-16 0
rhumerus -29.8139 45.248 -109.084
rradius 67.1118 0 0
rwrist -2.20593 0 0
rhand -7.89932 -23.1418 0
rfingers 7.12502 0 0
rthumb 18.0055 -772.325 0
820
root 2.14416 16.5748 23.3889 4.61266 -4.37788 352.424
lfemur -35.8129 -0.829675 3.76948
ltibia 16.8436 0 0
lfoot -7.6782 14.9523 0
ltoes 19.0378 0 0
rfemur 5.83887 6.48206 22.2095
rtibia 18.917 0 0
rfoot -21.3786 -12.2951 0
rtoes -25.9589 0 0
lowerback 0.0205861 6.85666 5.95921
upperback -0.314538 9.1501 0.00260752
thorax 0.58729 4.58326 -3.16423
lowerneck -5.50381 -1.44827 3.32656
upperneck 0.235501 -2.16531 1.33786
head 0.964776 -1.05151 -0.192986
lclavicle -2.48481e-16 0 0
lhumerus -53.3862 -6.15374 90.498
lradius 52.0513 0 0
lwrist 18.4542 0 0
lhand -7.16163 5.49493 0
lfingers 7.12502 0 0
lthumb 18.7154 34.6146 0
rclavicle -2.48481e-16 0 0
rhumerus -29.5725 45.1631 -108.471
rradius 66.9941 0 0
rwrist -2.47723 0 0
rhand -7.17223 -22.6272 0
rfingers 7.12502 0 0
rthumb 18.7052 -771.748 0
821
root 2.18537 16.5432 23.5537 4.46907 -5.28739 352.321
lfemur -35.3258 -0.401235 3.71613
ltibia 17.2277 0 0
lfoot -7.47121 15.4714 0
ltoes 19.8679 0 0
rfemur 6.6817 6.3735 22.0134
rtibia 18.6182 0 0
rfoot -21.2382 -12.5338 0
rtoes -27.2305 0 0
lowerback -0.165708 6.99211 5.94391
upperback -0.381871 9.31977 0.0540298
thorax 0.626431 4.66731 -3.07707
lowerneck -5.44616 -1.39587 3.42816
upperneck 0.530539 -2.10576 1.3006
head 1.04786 -1.01722 -0.221687
lclavicle 2.62569e-14 1.03623e-14 0
lhumerus -53.6077 -5.83618 90.199
lradius 51.9052 0 0
lwrist 18.0573 0 0
lhand -6.45363 5.52851 0
lfingers 7.12502 0 0
lthumb 19.396 34.5781 0
rclavicle 2.62569e-14 1.03623e-14 0
rhumerus -29.3685 44.9756 -107.692
rradius 66.8718 0 0
rwrist -2.64213 0 0
rhand -6.66096 -22.0925 0
rfingers 7.12502 0 0
rthumb 19.1968 -771.164 0
822
root 2.23348 16.5086 23.7366 4.29344 -6.18219 352.222
lfemur -34.8588 0.0962681 3.55235
ltibia 17.8438 0 0
lfoot -7.16844 15.8466 0
ltoes 20.5096 0 0
rfemur 7.54208 6.10384 21.7365
rtibia 18.4432 0 0
rfoot -21.0648 -12.738 0
rtoes -28.7422 0 0
lowerback -0.376048 7.11929 5.93311
upperback -0.460032 9.47697 0.113387
thorax 0.665597 4.74483 -2.98206
lowerneck -5.39024 -1.34114 3.54304
upperneck 0.869736 -2.04464 1.2517
head 1.14546 -0.981343 -0.256591
lclavicle 2.98277e-14 1.53766e-14 0
lhumerus -53.877 -5.48146 89.8707
lradius 51.7718 0 0
lwrist 17.6386 0 0
lhand -5.73937 5.56667 0
lfingers 7.12502 0 0
lthumb 20.0825 34.5437 0
rclavicle 2.98277e-14 1.53766e-14 0
rhumerus -29.1783 44.699 -106.786
rradius 66.7338 0 0
rwrist -2.75342 0 0
rhand -6.21495 -21.5034 0
rfingers 7.12502 0 0
rthumb 19.6256 -770.531 0
823
root 2.28672 16.4725 23.9314 4.09079 -7.03054 352.131
lfemur -34.421 0.618507 3.30078
ltibia 18.643 0 0
lfoot -6.7758 16.0782 0
ltoes 20.9339 0 0
rfemur 8.3919 5.6937 21.3917
rtibia 18.3975 0 0
rfoot -20.8611 -12.9035 0
rtoes -30.4279 0 0
lowerback -0.601461 7.23374 5.9261
upperback -0.545442 9.61626 0.178596
thorax 0.703294 4.81318 -2.88222
lowerneck -5.33736 -1.28739 3.6662
upperneck 1.24032 -1.98585 1.19454
head 1.25376 -0.946038 -0.295836
lclavicle 1.96715e-14 1.63154e-14 0
lhumerus -54.1806 -5.1052 89.5259
lradius 51.6514 0 0
lwrist 17.2176 0 0
lhand -5.04228 5.6097 0
lfingers 7.12502 0 0
lthumb 20.7523 34.5143 0
rclavicle 1.96715e-14 1.63154e-14 0
rhumerus -29.0099 44.3416 -105.788
rradius 66.5841 0 0
rwrist -2.8091 0 0
rhand -5.85008 -20.8823 0
rfingers 7.12502 0 0
rthumb 19.9764 -769.874 0
